<svg xmlns="http://www.w3.org/2000/svg" xml:space="preserve" viewBox="0 0 128 128"><radialGradient id="a" cx="63.6" cy="3189.1" r="50.7" gradientTransform="translate(0 -3114)" gradientUnits="userSpaceOnUse"><stop offset=".5" stop-color="#fde030"/><stop offset=".9" stop-color="#f7c02b"/><stop offset="1" stop-color="#f4a223"/></radialGradient><path fill="url(#a)" d="M63.6 124.8c-24.8 0-51.6-15.6-51.6-49.7s26.8-49.7 51.6-49.7c13.8 0 26.5 4.5 36 12.8 10.2 9 15.6 21.9 15.6 36.9s-5.4 27.7-15.7 36.8a54.4 54.4 0 0 1-35.9 12.9z"/><path fill="#eb8f00" d="M106.2 45.5a50.3 50.3 0 0 1 7.2 27 47 47 0 0 1-15.7 36.7 54.3 54.3 0 0 1-35.9 13c-16 0-33-6.6-42.8-20.5a51.6 51.6 0 0 0 44.6 23.1c13.7 0 26.5-4.6 36-12.9a47.6 47.6 0 0 0 15.6-36.8 50 50 0 0 0-9-29.6z"/><radialGradient id="b" cx="69.6" cy="-1087.7" r="19.4" gradientTransform="matrix(.98 0 0 -.88 -34.4 -882)" gradientUnits="userSpaceOnUse"><stop offset="0" stop-color="#ed7770"/><stop offset=".9" stop-color="#ed7770" stop-opacity="0"/></radialGradient><ellipse cx="33.8" cy="71.6" fill="url(#b)" opacity=".8" rx="17.5" ry="16.5"/><radialGradient id="c" cx="126.5" cy="-1042.6" r="19.4" gradientTransform="matrix(1 0 0 -1 0 130)" gradientUnits="userSpaceOnUse"><stop offset="0" stop-color="#ed7770"/><stop offset=".9" stop-color="#ed7770" stop-opacity="0"/></radialGradient><ellipse cx="94.2" cy="71.6" fill="url(#c)" opacity=".8" rx="17.5" ry="16.5"/><ellipse cx="24" cy="15" fill="#ff00a2" rx="7" ry="5"/><ellipse cx="49.6" cy="25.4" fill="#fd3b3b" rx="4.2" ry="5.5" transform="rotate(-45 49.6 25.4)"/><ellipse cx="72.5" cy="18.2" fill="#0ef" rx="8.4" ry="3.9" transform="rotate(-37.7 72.5 18.2)"/><ellipse cx="22.7" cy="81.7" fill="#0048ff" rx="2.9" ry="6.5" transform="rotate(-30 22.7 81.7)"/><ellipse cx="96.5" cy="110.5" fill="#f63bbe" rx="3.5" ry="5.5"/><ellipse cx="115.4" cy="57.1" fill="#0c0" rx="6.5" ry="2" transform="rotate(-35.1 115.4 57.1)"/><ellipse cx="19.2" cy="116" fill="#0048ff" rx="2.5" ry="6" transform="rotate(-33.3 19.2 116)"/><ellipse cx="15" cy="99" fill="#7acded" rx="6" ry="2.5" transform="rotate(-4.1 15 99)"/><ellipse cx="24" cy="86.7" fill="#ff82b2" rx="7.2" ry="1.7" transform="rotate(-3.8 24 86.8)"/><linearGradient id="d" x1="82.2" x2="119.4" y1="-902.7" y2="-902.7" gradientTransform="matrix(1 0 0 -1 0 -820)" gradientUnits="userSpaceOnUse"><stop offset="0" stop-color="#004054"/><stop offset="1" stop-color="#45a4ff"/></linearGradient><path fill="url(#d)" d="M118.9 78.2c-.8-3-2.9-5.4-5.6-6.8a9.5 9.5 0 0 0-12.8 3.8l-.1.1a8 8 0 0 0 3.3 10.9 7 7 0 0 0 5.1.7 6 6 0 0 0 4.1-3.2c.9-1.9.8-4-.2-5.9a5.2 5.2 0 0 0-4.2-2.8 1.9 1.9 0 0 0-.3 3.7c.5 0 1 .3 1.2.8.3.7.4 1.5.2 2.3-.3.7-1 1.2-1.7 1.3-.8.2-1.7.1-2.4-.3a4 4 0 0 1-2.1-2.5c-.3-1.1-.2-2.3.3-3.3.7-1.4 2-2.4 3.4-2.8 1.5-.4 3-.3 4.4.4a7.8 7.8 0 0 1 3.1 10.5c-1.9 3.6-5.6 6-11 6l-21.5-.5.2 4.6 21.1-.3c6.3 0 11.5-2.5 14.5-8.1a10 10 0 0 0 1-8.6z"/><path fill="#7f0099" d="M70 93c.6.7 1 1.4 1.4 2.2h11.4l-.1-4.6-11.1-.3a6 6 0 0 1-1.7 2.7h.1z"/><path fill="#ff4545" d="m104.8 54.8 3.5.5.9-3.5.5-2L89.6 47c9.1 6.9 14.6 7.8 15.2 7.8zm16.1-49.4-8.1 4.6-2 1.1 8.4 1.2 1.7-6.9zM103 15.5l-8.3 4.7 21.7 3.1 1.4-5.7zM79.3 28.9h-.1l34.5 5 1.3-5.3-28.1-4zm2.9 11.5 28.8 4.1 1.4-5.4-34.7-5c.4 1.1 1.6 3.3 4.5 6.3z"/><path fill="#ff9c9c" d="m86.9 24.6 28.1 4 1.4-5.3-21.7-3.1zm31.7-10.1.5-2.1-8.4-1.2-7.8 4.4 14.8 2.1.9-3.2zm-42.3 16 1.1 3.2.2.5 34.7 5 1.3-5.3L79.1 29l-2.8 1.5zm12.9 16.2.4.3 20.1 2.9 1.3-5.3-28.8-4.1c2.2 2.2 4.5 4.3 7 6.2z"/><circle cx="120.8" cy="6.5" r="4.8" fill="#c93737"/><path fill="#422b0d" d="M71.8 91.8c1.5-1.2 2.4-3 2.6-5 .3-2-.3-3.9-1.6-5.4-2.3-3-8.8-2.3-8.8-2.3-1.7.1-3.8 1-3.5 3 .3 1 1.3 2 2.4 2.2 2.6.6 6.2 0 6.3 2.6.2 3-4.3 1.7-4.7 4.8s4.7 2.7 4.7 4.8c0 1.7-1.6 2-3.4 2.3-1.5.3-4.4.8-4.6 2.5s.7 3.9 4.8 3.3c6.4-1 8.6-4.5 8.6-6.7 0-2.3-1-4.6-2.8-6zM49.9 65.4l-.2-.2-.4-.5-.5-.5-.7-.7a8.6 8.6 0 0 0-1.6-1.2 2 2 0 0 0-.6-.2h-.2.1-.5c-.1 0 0 0 0 0 .2 0 0 0 0 0a2 2 0 0 0-.7.2 12 12 0 0 0-1.6 1.2l-1.2 1.3-.4.6-.3.2a4 4 0 0 1-5.2.6c-1.1-.8-1.6-2-1.4-3.3l.2-1c.3-1 .7-1.9 1.2-2.7a10.7 10.7 0 0 1 7.8-5.7l.6-.1h2.2l1 .1a10.9 10.9 0 0 1 4.6 2 12 12 0 0 1 4 5.2l.4 1.3.1.6v.3c.3 2-1 3.7-3 4a4 4 0 0 1-3.7-1.5zm37.1 0-.1-.2-.5-.5-.4-.5-.7-.7a8.6 8.6 0 0 0-1.6-1.2 2 2 0 0 0-.6-.2H83h.1-.5c-.2 0 0 0 0 0 .1 0 0 0 0 0a2 2 0 0 0-.7.2 8.6 8.6 0 0 0-1.6 1.2L79 64.8l-.5.6-.2.2a4 4 0 0 1-5.3.6c-1-.8-1.6-2-1.4-3.3l.3-1a12 12 0 0 1 7.2-8l.8-.2 1-.3h2.8l1 .1c1.6.3 3.2 1 4.6 2a12.1 12.1 0 0 1 4.5 7.1v.2c.3 2-1 3.7-3 4a4 4 0 0 1-3.8-1.4z"/></svg>