<svg xmlns="http://www.w3.org/2000/svg" xml:space="preserve" viewBox="0 0 128 128"><linearGradient id="a" x1="16.4" x2="16.4" y1="53.1" y2="85.6" gradientTransform="matrix(1 0 0 -1 0 128)" gradientUnits="userSpaceOnUse"><stop offset=".5" stop-color="#ffca28"/><stop offset="1" stop-color="#ffb300"/></linearGradient><path fill="url(#a)" d="m26 62-6-5-4-3-2 1-5-10c-1-2-2-2-3-2l-2 4c1 6 6 13 7 15 4 4 4 10 4 10l1 1 9 2 1-1 3-7c0-3-2-4-3-5z"/><linearGradient id="b" x1="111.8" x2="111.8" y1="53.1" y2="85.6" gradientTransform="matrix(1 0 0 -1 0 128)" gradientUnits="userSpaceOnUse"><stop offset=".5" stop-color="#ffca28"/><stop offset="1" stop-color="#ffb300"/></linearGradient><path fill="url(#b)" d="M122 43c-1 0-2 0-2 2l-6 10-1-1c-2 0-4 2-5 3l-6 5c-1 1-2 2-2 5l2 7 1 1 9-2 1-1s0-5 4-10c2-2 6-9 7-15l-2-4z"/><linearGradient id="c" x1="64.1" x2="64.1" y1="44.6" y2="1.8" gradientTransform="matrix(1 0 0 -1 0 128)" gradientUnits="userSpaceOnUse"><stop offset="0" stop-color="#00bfa5"/><stop offset=".5" stop-color="#00b29a"/><stop offset="1" stop-color="#009e89"/></linearGradient><path fill="url(#c)" d="m116 71-2-2-13-1-1 2-3 19c-4-4-10-7-18-7H49c-8 0-14 3-18 6l-3-18-1-2-13 1-1 1-1 41c0 7 6 13 13 13 5 0 9-4 10-8v8h59v-8c0 4 4 8 9 8 7 0 13-6 13-13V71z"/><path fill="#009984" d="m99 123-2-1a10 10 0 0 1-3-6l-1-11s1 9 6 18zm-64-18v11c-1 3-3 6-6 7 5-9 6-18 6-18z"/><path fill="#e59600" d="M55 78v10c0 5 4 8 9 8s9-3 9-8V78H55zm31-34-49 6c-6 0-9 6-9 11 1 6 6 10 11 10l50-6c5-1 9-6 8-12 0-6-5-10-11-9z"/><path fill="#ffca28" d="M57 11c-16 2-28 21-25 45s19 34 35 33 29-16 26-40C90 24 73 9 57 11z"/><path fill="#795548" d="M71 76c0 2-2 3-5 4-3 0-6-1-6-3 0-3 2-5 5-5 3-1 6 1 6 4z"/><path fill="#e59600" d="m67 62-7 1v2s1 2 4 2l4-3-1-2z"/><g fill="#404040"><ellipse cx="47.5" cy="56.5" rx="4.5" ry="4.7" transform="rotate(-7 48 56)"/><ellipse cx="77.3" cy="52.9" rx="4.5" ry="4.7" transform="rotate(-7 77 53)"/></g><path fill="#6d4c41" d="M82 45h-8l-3 1c-1 1-1 0-2-1l1-1c2-3 6-4 9-4l4 2c1 1 0 3-1 3zm-42 3c1-3 5-5 8-4l4 1c1 1 3 3 1 3h-3a11 11 0 0 0-8 2c-1 0-3-1-2-2z"/><path fill="#543930" d="M57 4c-42 6-28 52-28 52l4 7 3-23c1-3 3-5 6-4l18-1c7-1 14-2 18-4 2-1 5 1 7 3a285 285 0 0 1 9 22l1-8S98 0 57 4z"/><radialGradient id="d" cx="59.8" cy="84.1" r="35.2" gradientTransform="matrix(.993 -.1184 -.1336 -1.1203 13 145)" gradientUnits="userSpaceOnUse"><stop offset=".8" stop-color="#6d4c41" stop-opacity="0"/><stop offset="1" stop-color="#6d4c41"/></radialGradient><path fill="url(#d)" d="M95 48S98 0 57 4a51 51 0 0 0-6 1c-35 9-22 51-22 51l4 7 3-23c1-3 3-5 6-4l18-1c7-1 14-2 18-4 2-1 5 1 7 3a288 288 0 0 1 9 22l1-8z"/></svg>