<svg xmlns="http://www.w3.org/2000/svg" xml:space="preserve" viewBox="0 0 128 128"><path fill="#ca2c31" d="m4 72 16-16 28-5-3 14L8 77l-3-1z"/><path fill="#a02422" d="M23 60 5 76l13 6 20-10v-5l4-11zm42 28-9 4-8 17 8 16h4l14-16 4-27-13 6z"/><path fill="#ca2c31" d="m57 101 8-3 7-4-1 14-15 17-3-6-3-6 7-12z"/><path fill="#f7d74d" d="M32 81s-6-1-12 7c-6 7-9 19-10 22l-3 5 9 1 8-2v2l-1 1c0 1 11 1 20-8 10-10 5-18 5-18L32 81z"/><path fill="#fbf0b4" d="M33 85s-6 1-11 9-7 17-7 17l12-2c2 1 1 2 1 3 1 0 5 1 12-7 6-7 5-17 5-17l-12-3z"/><path fill="#858585" d="m36 74-4 5-1 2s1 6 6 10c6 6 11 7 12 7l6-6-19-18z"/><path fill="#437687" d="M50 91s5 4 14 1c11-4 20-13 30-24 10-10 19-24 19-24l-6-19-57 66z"/><path fill="#3f545f" d="m68 80 1-4h4l4 3 5 1-5 4-5-1-4-3z"/><path fill="#8dafbf" d="M84 16s-9 6-23 19C48 47 39 57 37 66c-2 8-1 12 3 17 5 6 10 8 10 8s4 0 20-12c21-16 37-43 37-43L84 16z"/><path fill="#d83f22" d="M104 42s-8-4-14-12-6-14-6-14 5-4 16-8c8-3 18-5 22-2s-3 15-3 15l-10 20-5 1z"/><path fill="#6896a5" d="M68 80s-7-3-12-9c-8-9-10-20-10-20l4-5s1 11 11 21c6 7 12 10 12 10l-3 2-2 1z"/><path fill="#a02422" d="M113 44s4-5 8-17c6-16 1-21 1-21s-2 8-8 19l-10 17 5 2h4z"/><path fill="#b3e1ee" d="M40 70c1 1 3 0 4-3 2-3 2-5 1-6-2-1-4 1-5 3v6zm45-50L69 33 56 46v5h3l16-16 12-9 2-5-4-1z"/><path fill="#ed6a65" d="m85 20 12-7c5-3 11-5 12-3s-5 4-11 8l-11 8-1-3-1-3z"/><path fill="#e1e1e1" d="M90 39c-6-5-14-3-18 1-3 5-3 12 1 16 5 4 12 5 17 0 4-5 4-13 0-17z"/><path fill="#3f545f" d="M75 42c-3 3-3 10 1 12 4 3 8 3 12 0 3-3 3-9 0-12-4-3-9-4-13 0z"/><path fill="#a02524" d="m50 77 7-6c1 1 0 5-3 9a151 151 0 0 1-27 28l-4-3c-1-1 2-6 3-7l24-21z"/><path fill="#ca2c31" d="m21 102 2 3 34-34s-2-1-6 1c-5 3-9 7-15 13-8 8-15 15-15 17z"/><path fill="#fff" d="M19 37v4c1 1 3 0 4-1s0-2-1-3h-3z"/><path fill="#fff" d="M41 36v2h3v-2h-3z" opacity=".5"/><path fill="#fff" d="m56 12 1-4 2 4h4l-2 3v4l-3-1-4 1v-4l-2-2 4-1zm41 83c1 1 3 1 3-1 1-1 0-2-1-3l-3 2 1 2zm17-29c-1-1-2-2-3-1v3h3v-2z"/></svg>