<svg xmlns="http://www.w3.org/2000/svg" xml:space="preserve" viewBox="0 0 128 128"><path fill="#fdd835" d="m121.6 60.8-14-4.5c-8.8-2.9-14-10.1-16.5-19.2L85 7.3c-.2-.6-.6-1.4-1.8-1.4-1 0-1.6.8-1.8 1.4l-6 29.8c-2.5 9.1-7.7 16.3-16.7 19.3l-13.9 4.4c-2 .7-2 3.5 0 4.1l14 4.9c8.9 3 14 10.1 16.5 19.1l6.2 29.6c.1.6.5 1.6 1.7 1.6 1.3 0 1.6-1 1.8-1.6l6-29.6c2.5-9 7.6-16.2 16.5-19.1l14-4.9c2-.7 2-3.4 0-4z"/><path fill="#ffee58" d="M123 62c-.3-.5-.7-1-1.4-1.2l-14-4.5c-8.8-2.9-14-10.1-16.5-19.2L85 7.3c-.1-.4-.5-1-.8-1.2l2 30c1.4 13.7 2.7 20.1 13.6 22l23.1 4z"/><path fill="#f4b400" d="m123 63.6-24.2 5.6c-8.5 2.1-13.2 7-13.2 20l-2.4 31c.8-.2 1.5-.6 1.8-1.7l6-29.6c2.5-9 7.6-16.2 16.5-19.1l14-4.9c.7-.2 1.1-.7 1.3-1.3z"/><path fill="#fdd835" d="M41.8 86.8c-8.3-2.7-9-5.8-10.5-11l-3.5-12.3c-.2-.8-2.2-.8-2.5 0L23 74.8c-1.4 5.2-4.4 9.3-9.6 11l-8.1 3.6c-1.2.4-1.2 2 0 2.3l8.2 3c5 1.6 8 5.8 9.5 11l2.4 10.8c.2.8 2.2.8 2.4 0l2.8-10.8c1.4-5.2 3.6-9.4 10.5-11l7.7-3c1.2-.4 1.2-2 0-2.3l-7-2.6z"/><path fill="#ffee58" d="M28.5 75.5c.8 8 1.3 10 7.6 11.7l13.3 2.6c-.1-.2-.3-.3-.6-.4l-7-2.6c-7.3-2.5-9.3-5.7-10.7-12-1.4-6.4-2.8-10.5-2.8-10.5C27.8 62.9 27 63 27 63l1.5 12.5z"/><path fill="#f4b400" d="M28.7 103c0-7.4 4-11 10.5-11l10-.5s-.5.8-1.6 1l-6.5 2.1c-5.5 2.3-8 3.4-9.8 11 0 0-2.2 8.8-2.6 9.7-.6 1.3-1.3 1.6-1.3 1.6l1.3-14z"/><path fill="#f4b400" stroke="#f4b400" stroke-miterlimit="10" d="M59.7 28.1c.6-.2.6-1 0-1.1L52 25a4.8 4.8 0 0 1-3.3-3.4l-3-12.5c-.2-.6-1.1-.6-1.3 0l-2.8 12.5c-.5 1.6-1.8 3-3.4 3.3l-7.7 2c-.6.2-.6 1 0 1.2l8 2.8c1.5.5 2.6 1.7 3 3.1l3 11.6c.1.6 1 .6 1.1 0l3-11.6a4.8 4.8 0 0 1 3-3.1l8.1-2.8z"/></svg>